<svg xmlns="http://www.w3.org/2000/svg" style="display: none;"><symbol id="coding-program" viewBox="0 0 512 512"><title>coding-program</title><path d="M0,32v448h512V32H0z M480,448H32V64h448V448z M448,96H64v320h384V96z M224,256h-32v32h-32v32h-32v-32h32v-32h32v-32h-32 v-32h-32v-32h32v32h32v32h32V256z M352,320h-96v-32h96V320z" fill="#340329"/></symbol><symbol id="cloud" viewBox="0 0 56 56"><title>cloud</title><path d="M25,46H10.845C4.865,46,0,41.135,0,35.154C0,31,2.705,26.688,6.433,24.901L7,24.63V24c0-0.127,0.008-0.256,0.015-0.386 l0.009-0.16l-0.012-0.21C7.006,23.163,7,23.082,7,23c0-3.859,3.141-7,7-7c0.309,0,0.614,0.027,0.917,0.067 c0.078,0.01,0.156,0.023,0.233,0.036c0.267,0.044,0.53,0.102,0.789,0.177c0.035,0.01,0.071,0.017,0.106,0.027 c0.285,0.087,0.563,0.197,0.835,0.321c0.071,0.032,0.14,0.067,0.21,0.101c0.24,0.119,0.475,0.249,0.702,0.396 C19.719,18.373,21,20.538,21,23c0,0.553,0.447,1,1,1s1-0.447,1-1c0-2.754-1.246-5.219-3.2-6.871C22.667,12.379,27.388,10,32.085,10 c7.745,0,14.177,6.135,14.848,13.888c-1.022-0.072-2.552-0.109-4.083,0.124c-0.546,0.083-0.921,0.593-0.838,1.139 c0.075,0.495,0.501,0.85,0.987,0.85c0.05,0,0.101-0.004,0.151-0.012c2.227-0.337,4.548-0.021,4.684-0.002 C52.49,26.872,56,31.161,56,35.972C56,41.501,51.501,46,45.972,46H33H25z" fill="#340329"/></symbol><symbol id="server" viewBox="0 0 472.615 472.615"><title>server</title><path d="M472.615,118.154V0H0v118.154h68.923v29.539H0v118.154h68.923v29.538H0v118.154h68.923v39.385H29.538v19.692h413.538 v-19.692h-39.385v-39.385h68.923V295.385h-68.923v-29.538h68.923V147.692h-68.923v-29.539H472.615z M403.692,49.231h19.692v19.692 h-19.692V49.231z M354.462,49.231h19.692v19.692h-19.692V49.231z M305.231,49.231h19.692v19.692h-19.692V49.231z M256,49.231 h19.692v19.692H256V49.231z M49.231,59.077c0-10.929,8.862-19.692,19.692-19.692c10.831,0,19.692,8.763,19.692,19.692 c0,10.831-8.862,19.692-19.692,19.692C58.092,78.769,49.231,69.908,49.231,59.077z M49.231,206.769 c0-10.929,8.862-19.692,19.692-19.692c10.831,0,19.692,8.763,19.692,19.692c0,10.831-8.862,19.692-19.692,19.692 C58.092,226.462,49.231,217.6,49.231,206.769z M68.923,374.154c-10.831,0-19.692-8.862-19.692-19.692 c0-10.929,8.862-19.692,19.692-19.692c10.831,0,19.692,8.763,19.692,19.692C88.615,365.292,79.754,374.154,68.923,374.154z M384,452.923H88.615v-39.385H384V452.923z M256,364.308v-19.692h19.692v19.692H256z M305.231,364.308v-19.692h19.692v19.692 H305.231z M354.462,364.308v-19.692h19.692v19.692H354.462z M384,295.385H88.615v-29.538H384V295.385z M256,216.615v-19.692 h19.692v19.692H256z M305.231,216.615v-19.692h19.692v19.692H305.231z M354.462,216.615v-19.692h19.692v19.692H354.462z M384,147.692H88.615v-29.539H384V147.692z M423.385,344.615v19.692h-19.692v-19.692H423.385z M423.385,196.923v19.692h-19.692 v-19.692H423.385z" fill="#340329"/></symbol><symbol id="web-1" viewBox="0 0 96 96"><title>web-1</title><path d="M48.07,47.746c-0.022,0-0.047-0.001-0.07-0.002c-0.024,0.001-0.049,0.002-0.071,0.002 c-5.957,0-11.206-1.508-14.308,1.34c-1.859,1.709-2.642,3.768-2.642,5.985c0,9.261,7.42,10.398,16.949,10.398h0.142 c9.529,0,16.949-1.138,16.949-10.398c0-2.218-0.783-4.276-2.642-5.985C59.275,46.238,54.027,47.746,48.07,47.746z M39.968,60.401 c-1.813,0-3.283-2.036-3.283-4.547s1.47-4.546,3.283-4.546s3.285,2.035,3.285,4.546S41.781,60.401,39.968,60.401z M56.031,60.401 c-1.814,0-3.285-2.036-3.285-4.547s1.471-4.546,3.285-4.546c1.812,0,3.283,2.035,3.283,4.546S57.844,60.401,56.031,60.401z M48,0 C21.489,0,0,21.49,0,48s21.489,48,48,48c26.509,0,48-21.49,48-48S74.509,0,48,0z M52.378,67.701c-0.86,0-2.57,0.002-4.378,0.004 c-1.809-0.002-3.52-0.004-4.379-0.004c-3.803,0-18.863-0.291-18.863-18.445c0-4.177,1.432-7.233,3.775-9.778 c-0.374-0.923-0.393-6.165,1.602-11.183c0,0,4.576,0.502,11.5,5.253c1.451-0.401,3.908-0.601,6.365-0.601 c2.455,0,4.912,0.199,6.365,0.601c6.923-4.751,11.498-5.253,11.498-5.253c1.995,5.018,1.977,10.26,1.603,11.183 c2.344,2.545,3.776,5.602,3.776,9.778C71.242,67.41,56.181,67.701,52.378,67.701z" fill="#340329"/></symbol><symbol id="web" viewBox="0 0 24.332 24.332"><title>web</title><path d="M3.607,17.11C1.618,17.11,0,18.726,0,20.717c0,1.984,1.618,3.604,3.607,3.604s3.607-1.619,3.607-3.604 C7.214,18.726,5.596,17.11,3.607,17.11z" fill="#340329"/><path d="M0.375,7.951C0.169,7.951,0,8.12,0,8.328v4.578c0,0.206,0.169,0.374,0.375,0.374c5.879,0,10.665,4.784,10.665,10.665 c0,0.205,0.166,0.375,0.375,0.375h4.581h0.016c0.209,0,0.377-0.17,0.377-0.375l-0.018-0.117 C16.305,15.064,9.152,7.951,0.375,7.951z" fill="#340329"/><path d="M24.311,23.828C24.246,10.681,13.531,0.01,0.375,0.01C0.169,0.01,0,0.179,0,0.387v4.711c0,0.207,0.169,0.375,0.375,0.375 c10.186,0,18.472,8.287,18.472,18.473c0,0.205,0.168,0.375,0.373,0.375h4.713h0.02c0.205,0,0.379-0.17,0.379-0.375L24.311,23.828z " fill="#340329"/></symbol><symbol id="social" viewBox="0 0 96.98 96.98"><title>social</title><path d="M49.16,51.833L37.694,85.152c3.425,1.004,7.046,1.558,10.798,1.558c4.449,0,8.719-0.77,12.689-2.167 c-0.102-0.164-0.195-0.338-0.271-0.527L49.16,51.833z" fill="#340329"/><path d="M10.272,48.488c0,15.129,8.792,28.202,21.541,34.396l-18.23-49.949C11.463,37.688,10.272,42.948,10.272,48.488z" fill="#340329"/><path d="M74.289,46.56c0-4.723-1.695-7.993-3.149-10.541c-1.938-3.148-3.754-5.813-3.754-8.962c0-3.513,2.664-6.783,6.418-6.783 c0.17,0,0.33,0.021,0.496,0.029c-6.798-6.227-15.856-10.031-25.807-10.031c-13.354,0-25.101,6.85-31.932,17.227 c0.896,0.027,1.739,0.046,2.459,0.046c3.998,0,10.187-0.485,10.187-0.485c2.062-0.124,2.302,2.903,0.245,3.146 c0,0-2.071,0.243-4.374,0.365l13.915,41.397l8.363-25.085L41.4,30.57c-2.058-0.122-4.007-0.365-4.007-0.365 c-2.058-0.12-1.818-3.268,0.241-3.146c0,0,6.313,0.485,10.066,0.485c3.997,0,10.188-0.485,10.188-0.485 c2.062-0.122,2.303,2.903,0.243,3.146c0,0-2.073,0.243-4.374,0.365L67.57,71.653l3.812-12.738 C73.033,53.629,74.289,49.831,74.289,46.56z" fill="#340329"/><path d="M82.025,30.153c0.164,1.216,0.258,2.525,0.258,3.93c0,3.878-0.723,8.238-2.905,13.689L67.703,81.523 c11.361-6.626,19.006-18.936,19.006-33.033C86.71,41.844,85.011,35.596,82.025,30.153z" fill="#340329"/><path d="M48.49,0C21.71,0,0.001,21.71,0.001,48.49S21.71,96.98,48.49,96.98s48.489-21.71,48.489-48.49S75.27,0,48.49,0z M48.492,90.997c-23.44,0-42.507-19.067-42.507-42.509c0-23.438,19.066-42.505,42.507-42.505 c23.437,0,42.503,19.068,42.503,42.505C90.996,71.928,71.928,90.997,48.492,90.997z" fill="#340329"/></symbol><symbol id="html-5-logo" viewBox="0 0 456.804 456.804"><title>html-5-logo</title><path d="M27.405,0l36.542,410.56l163.882,46.244l165.022-46.244L429.398,0H27.405z M350.025,133.904h-192.43l4.283,51.676h183.866 l-14.273,155.315l-102.499,28.26v0.287h-1.143l-103.356-28.547l-6.28-79.367h49.965l3.711,39.971l55.959,15.126l56.245-15.126 l6.283-65.097H115.625l-13.418-152.46h252.392L350.025,133.904z" fill="#340329"/></symbol><symbol id="js-file" viewBox="0 0 312.553 312.553"><title>js-file</title><path d="M302.553,0H10C4.477,0,0,4.478,0,10v292.553c0,5.522,4.477,10,10,10h292.553c5.523,0,10-4.478,10-10V10 C312.553,4.478,308.076,0,302.553,0z M143.625,173.732c0,18.615-10.434,30.179-27.232,30.179c-10.55,0-19.978-5.292-26.547-14.901 c-2.905-4.251-1.815-10.053,2.436-12.959c4.252-2.906,10.055-1.814,12.959,2.436c3.074,4.498,6.826,6.778,11.152,6.778 c3.419,0,8.586,0,8.586-11.532v-47.467H99.504c-5.149,0-9.323-4.174-9.323-9.323c0-5.149,4.174-9.323,9.323-9.323h34.798 c5.149,0,9.323,4.174,9.323,9.323V173.732z M189.441,205.6c-12.499,0-25.251-5.27-33.279-13.753 c-3.54-3.74-3.377-9.642,0.362-13.181c3.741-3.54,9.644-3.377,13.181,0.362c4.486,4.74,12.417,7.925,19.736,7.925 c7.493,0,16.244-2.188,16.244-8.351c0.048-5.81-3.045-7.986-17.415-12.339c-12.677-3.839-31.835-9.642-31.835-31.725 c0-16.5,14.306-27.586,35.599-27.586c9.479,0,19.815,2.874,26.975,7.502c4.324,2.795,5.564,8.567,2.769,12.892 c-2.796,4.324-8.568,5.564-12.892,2.769c-4.112-2.658-11.042-4.516-16.852-4.516c-7.82,0-16.952,2.342-16.952,8.939 c0,7.165,4.189,9.516,18.594,13.879c12.277,3.718,30.83,9.337,30.656,30.262C224.331,194.75,210.31,205.6,189.441,205.6z" fill="#340329"/></symbol><symbol id="interface" viewBox="0 0 312.553 312.553"><title>interface</title><path d="M302.553,0H10C4.477,0,0,4.478,0,10v292.553c0,5.522,4.477,10,10,10h292.553c5.523,0,10-4.478,10-10V10 C312.553,4.478,308.076,0,302.553,0z M112.37,178.133h-8.836v18.144c0,5.149-4.174,9.323-9.323,9.323s-9.323-4.174-9.323-9.323v-80 c0-5.149,4.174-9.323,9.323-9.323h18.159c24.601,0,39.882,13.526,39.882,35.302C152.252,164.386,136.971,178.133,112.37,178.133z M193.505,203.312c-12.211,0-24.673-5.151-32.521-13.443c-3.539-3.739-3.377-9.641,0.362-13.181 c3.74-3.54,9.641-3.378,13.181,0.362c4.311,4.555,11.938,7.615,18.979,7.615c7.156,0,15.513-2.055,15.513-7.845 c0.046-5.542-2.768-7.503-16.727-11.73c-12.391-3.753-31.114-9.423-31.114-31.073c0-16.188,14.005-27.063,34.849-27.063 c9.254,0,19.35,2.809,26.346,7.329c4.325,2.795,5.566,8.566,2.771,12.891c-2.795,4.325-8.567,5.566-12.891,2.771 c-3.959-2.558-10.632-4.345-16.227-4.345c-7.474,0-16.202,2.204-16.202,8.417c0,6.788,4.026,9.033,17.873,13.227 c12.002,3.635,30.14,9.128,29.969,29.654C227.664,190.007,217.102,203.312,193.505,203.312z" fill="#340329"/><path d="M112.37,125.6h-8.836v33.887h8.836c21.235,0,21.235-12.97,21.235-17.232C133.605,138.136,133.605,125.6,112.37,125.6z" fill="#340329"/></symbol><symbol id="php-programming-language" viewBox="0 0 16.172 16.172"><title>php-programming-language</title><path d="M13.043,6.367c-0.237,0-0.398,0.022-0.483,0.047v1.523c0.101,0.022,0.223,0.03,0.391,0.03 c0.621,0,1.004-0.313,1.004-0.842C13.954,6.651,13.625,6.367,13.043,6.367z" fill="#340329"/><path d="M15.14,0H1.033C0.463,0,0,0.462,0,1.032v14.108c0,0.568,0.462,1.031,1.033,1.031H15.14 c0.57,0,1.032-0.463,1.032-1.031V1.032C16.172,0.462,15.71,0,15.14,0z M4.904,8.32C4.506,8.695,3.916,8.863,3.227,8.863 c-0.153,0-0.291-0.008-0.398-0.023v1.846H1.673V5.594c0.36-0.061,0.865-0.107,1.578-0.107c0.719,0,1.233,0.139,1.577,0.414 C5.158,6.162,5.38,6.59,5.38,7.095S5.211,8.029,4.904,8.32z M10.382,10.686H9.218v-2.16H7.297v2.16H6.125V5.526h1.172v1.983h1.921 V5.526h1.164C10.382,5.526,10.382,10.686,10.382,10.686z M14.635,8.32c-0.397,0.375-0.987,0.543-1.677,0.543 c-0.152,0-0.291-0.008-0.398-0.023v1.846h-1.155V5.594c0.359-0.061,0.864-0.107,1.577-0.107c0.72,0,1.232,0.139,1.577,0.414 c0.33,0.261,0.552,0.689,0.552,1.194C15.11,7.6,14.942,8.029,14.635,8.32z" fill="#340329"/><path d="M3.312,6.367c-0.238,0-0.398,0.022-0.483,0.047v1.523c0.1,0.022,0.222,0.03,0.391,0.03 c0.62,0,1.003-0.313,1.003-0.842C4.223,6.651,3.894,6.367,3.312,6.367z" fill="#340329"/></symbol><symbol id="css-file" viewBox="0 0 312.553 312.553"><title>css-file</title><path d="M302.553,0H10C4.477,0,0,4.478,0,10v292.553c0,5.522,4.477,10,10,10h292.553c5.523,0,10-4.478,10-10V10 C312.553,4.478,308.076,0,302.553,0z M120.934,192.814c-9.358,8.189-21.313,12.699-33.66,12.699 c-27.747,0-50.321-22.112-50.321-49.293c0-27.119,22.574-49.182,50.321-49.182c12.365,0,24.279,4.472,33.548,12.592 c3.873,3.394,4.262,9.283,0.869,13.156c-3.392,3.874-9.283,4.265-13.157,0.869c-5.867-5.14-13.417-7.971-21.26-7.971 c-17.465,0-31.674,13.698-31.674,30.535c0,16.898,14.209,30.646,31.674,30.646c7.83,0,15.423-2.872,21.381-8.086 c3.874-3.391,9.765-2.998,13.156,0.877C125.201,183.533,124.809,189.423,120.934,192.814z M167.398,204.97 c-12.343,0-24.936-5.205-32.864-13.586c-3.539-3.74-3.375-9.641,0.365-13.18c3.741-3.538,9.642-3.376,13.18,0.365 c4.388,4.638,12.152,7.754,19.319,7.754c7.308,0,15.842-2.114,15.842-8.072c0.047-5.691-2.819-7.697-17.036-12.003 c-12.52-3.791-31.439-9.521-31.439-31.366c0-16.328,14.14-27.299,35.185-27.299c9.358,0,19.563,2.839,26.631,7.408 c4.324,2.796,5.563,8.567,2.767,12.892c-2.795,4.325-8.568,5.564-12.892,2.769c-4.026-2.604-10.814-4.422-16.507-4.422 c-7.629,0-16.537,2.267-16.537,8.652c0,6.958,4.099,9.25,18.196,13.52c12.126,3.673,30.449,9.222,30.278,29.927 C201.888,194.232,188.028,204.97,167.398,204.97z M241.109,204.97c-12.344,0-24.936-5.205-32.864-13.586 c-3.539-3.74-3.376-9.641,0.365-13.18c3.741-3.538,9.642-3.376,13.18,0.365c4.388,4.638,12.152,7.754,19.319,7.754 c7.308,0,15.842-2.114,15.842-8.072c0.047-5.691-2.818-7.697-17.035-12.003c-12.52-3.791-31.439-9.521-31.439-31.366 c0-16.328,14.14-27.299,35.185-27.299c9.358,0,19.563,2.839,26.631,7.408c4.324,2.796,5.564,8.567,2.768,12.892 c-2.795,4.325-8.567,5.564-12.892,2.769c-4.026-2.604-10.814-4.422-16.507-4.422c-7.629,0-16.538,2.267-16.538,8.652 c0,6.958,4.099,9.25,18.197,13.52c12.125,3.673,30.449,9.222,30.278,29.927C275.599,194.232,261.739,204.97,241.109,204.97z" fill="#340329"/></symbol></svg>